Coordinates
version=1
nRows=4
nColumns=63
inDegrees=yes

Units are S.I. units (second, meters, Newtons, ...)
If the header above contains a line with 'inDegrees', this indicates whether rotational values are in degrees (yes) or radians (no).

endheader
time	pelvis_tilt	pelvis_list	pelvis_rotation	pelvis_tx	pelvis_ty	pelvis_tz	hip_flexion_r	hip_adduction_r	hip_rotation_r	knee_angle_r	knee_angle_r_beta	ankle_angle_r	subtalar_angle_r	mtp_angle_r	hip_flexion_l	hip_adduction_l	hip_rotation_l	knee_angle_l	knee_angle_l_beta	ankle_angle_l	subtalar_angle_l	mtp_angle_l	L5_S1_Flex_Ext	L5_S1_Lat_Bending	L5_S1_axial_rotation	L4_L5_Flex_Ext	L4_L5_Lat_Bending	L4_L5_axial_rotation	L3_L4_Flex_Ext	L3_L4_Lat_Bending	L3_L4_axial_rotation	L2_L3_Flex_Ext	L2_L3_Lat_Bending	L2_L3_axial_rotation	L1_L2_Flex_Ext	L1_L2_Lat_Bending	L1_L2_axial_rotation	L1_T12_Flex_Ext	L1_T12_Lat_Bending	L1_T12_axial_rotation	Abs_r3	Abs_r2	Abs_r1	Abs_t1	Abs_t2	neck_flexion	neck_bending	neck_rotation	arm_flex_r	arm_add_r	arm_rot_r	elbow_flex_r	pro_sup_r	wrist_flex_r	wrist_dev_r	arm_flex_l	arm_add_l	arm_rot_l	elbow_flex_l	pro_sup_l	wrist_flex_l	wrist_dev_l
      2.41666667	     -1.58068629	    -18.82152513	     94.56335770	      0.20785622	      0.80239934	      0.62437843	     46.82138061	     -3.36571266	      7.62845611	     59.65453584	      1.04116806	     51.72693762	    -18.79286143	      0.00000000	     48.05137247	      5.58943773	      5.39645342	     59.80074948	      1.04371997	     57.65164612	     -6.97886285	      0.00000000	      0.38612361	     -0.06359729	      1.57948626	      0.71707015	     -0.08458439	      1.67820415	      0.63436248	     -0.15463045	      1.67820415	      0.44130067	     -0.15463045	      1.38205047	      0.35855438	     -0.12968759	      1.28333258	      0.22063103	     -0.09851220	      1.18461469	      2.75804232	     -0.71942525	      8.78462871	      0.00000000	      0.00000000	     28.41137425	     12.02873652	     -2.79894280	      7.44105818	      6.52938678	     -6.97625874	    125.14453700	     86.13649840	     -8.13013450	     22.43342959	     15.75230260	     -1.98370485	    -25.38572218	    148.50730400	     86.79613376	    -24.93621458	      6.17389366
      2.43333333	     -0.79507798	    -18.71009343	     95.46052545	      0.20710390	      0.80070126	      0.62429847	     46.95536541	     -3.14935103	      6.87647842	     60.06930237	      1.04840711	     52.49562504	    -18.69741125	      0.00000000	     48.33709370	      5.29711574	      5.91850188	     60.40481752	      1.05426295	     58.22210921	     -6.79616784	      0.00000000	      0.37432283	     -0.01324171	      1.35712292	      0.69515493	     -0.01761148	      1.44194311	      0.61497498	     -0.03219590	      1.44194311	      0.42781356	     -0.03219590	      1.18748256	      0.34759618	     -0.02700250	      1.10266238	      0.21388806	     -0.02051141	      1.01784219	      2.67375054	     -0.14979291	      7.54791056	      0.00000000	      0.00000000	     28.39580387	     12.28404668	     -2.81611980	      7.71441348	      6.05512003	     -9.18807156	    128.19873512	     85.33252652	     -8.30422997	     20.34122529	     14.11293553	     -1.43504652	    -24.78040864	    145.68240779	     85.09571383	    -25.66670165	      6.35062712
      2.45000000	     -0.39380571	    -18.40423115	     96.06476754	      0.20683916	      0.80062804	      0.62355199	     46.71138825	     -2.97728289	      6.59931833	     60.25560543	      1.05165871	     53.17831407	    -18.75211736	      0.00000000	     48.05907194	      5.12358172	      6.15147383	     60.53850032	      1.05659615	     58.50731395	     -6.84841060	      0.00000000	      0.34912549	     -0.01130846	      1.15209839	      0.64836094	     -0.01504025	      1.22410454	      0.57357826	     -0.02749539	      1.22410454	      0.39901552	     -0.02749539	      1.00808609	      0.32419793	     -0.02306021	      0.93607994	      0.19949030	     -0.01751681	      0.86407379	      2.49376845	     -0.12792358	      6.40762560	      0.00000000	      0.00000000	     28.37861355	     12.33703888	     -2.45314086	      8.35919473	      5.50386390	    -11.23477932	    131.52775103	     85.02084332	     -8.59020129	     18.58960300	     12.98395063	     -0.92613865	    -24.66969831	    142.23427975	     84.18878079	    -25.73908582	      6.48159623
      2.46666667	      0.96765031	    -17.76562087	     97.82282650	      0.20489245	      0.80259762	      0.62221383	     45.59184199	     -2.89523063	      4.70878138	     59.72280880	      1.04235965	     53.47233742	    -18.65859736	      0.00000000	     47.32311497	      4.95460386	      7.76586360	     60.39669995	      1.05412127	     58.38513452	     -7.38585771	      0.00000000	      0.33651272	      0.09090469	      0.85458427	      0.62493777	      0.12090324	      0.90799578	      0.55285675	      0.22102566	      0.90799578	      0.38460039	      0.22102566	      0.74776123	      0.31248571	      0.18537284	      0.69434972	      0.19228337	      0.14081136	      0.64093820	      2.40367672	      1.02833202	      4.75294131	      0.00000000	      0.00000000	     28.34585288	     11.05890268	     -3.66055313	      9.11447598	      3.68903332	    -13.31848728	    134.96000312	     83.76782969	     -9.77695449	     15.20606833	     11.76965355	      0.50570278	    -25.69015507	    135.91373800	     78.63245466	    -13.71181841	     -4.25613689
